<?xml version="1.0" encoding="utf-8"?>
<!-- Generator: Adobe Illustrator 28.3.0, SVG Export Plug-In . SVG Version: 6.00 Build 0)  -->
<svg version="1.1" id="Layer_1" xmlns="http://www.w3.org/2000/svg" xmlns:xlink="http://www.w3.org/1999/xlink" x="0px" y="0px"
	 viewBox="0 0 945.2 945.2" style="enable-background:new 0 0 945.2 945.2;" xml:space="preserve">
<style type="text/css">
	.st0{opacity:0.91;}
</style>
<g>
	<path class="st0" d="M1235.2,608.4L1235.2,608.4c0-1.3,1-2.4,2.3-2.6c1.2-0.2,2.9-0.4,5-0.8c3.8-0.7,7.8-1.8,12-3.5
		c4.2-1.7,7.8-4,11-7c3.2-3,4.8-6.8,4.8-11.5c0-3-0.9-7.9-2.8-14.8c-1.8-6.8-4.4-15.2-7.8-25c-3.3-9.8-7.2-20.8-11.5-32.8
		c-4.1-11.5-8.6-23.4-13.4-35.8c-0.4-1-1.4-1.7-2.4-1.7l-10.3,0l-119.1,0c-1.1,0-2,0.7-2.4,1.7c-4.8,12.1-9.4,23.6-13.8,34.6
		c-4.7,11.5-9.3,23.1-14,34.8c-7,18-10.5,30.7-10.5,38c0,4.3,1.3,7.9,4,10.8c2.7,2.8,6.1,5.2,10.2,7c4.2,1.8,8.7,3.2,13.5,4
		c4,0.7,7.9,1.3,11.5,1.9c1.3,0.2,2.2,1.3,2.2,2.6v0.1c0,1.4-1.2,2.6-2.6,2.6H999.8c-1.4,0-2.6-1.2-2.6-2.6v-0.6
		c0-1.3,0.9-2.4,2.2-2.6c7.7-1.1,14.4-3.4,20-6.7c6.2-3.7,9.8-6.2,10.8-7.5c2.3-2.3,6.2-7.8,11.5-16.5c5.3-8.7,11.8-21.5,19.5-38.5
		c7-15.7,14.8-33.5,23.5-53.5c8.7-20,17.6-40.6,26.8-61.8c9.2-21.2,18.2-42.5,27.3-64c8.8-21.1,17.2-40.8,25-59.2
		c0.3-0.7,0.3-1.4,0-2.1l-3.4-7.6c-0.6-1.3,0-2.8,1.2-3.4c5.1-2.4,9.7-5.2,13.9-8.4c4.8-3.7,9.1-7.5,12.8-11.5
		c3.7-4,6.8-7.8,9.2-11.5c2.1-3,3.7-5.6,5-7.7c0.5-0.8,1.3-1.3,2.2-1.3l0.7,0c1.1,0,2.1,0.7,2.5,1.7c10.1,27,19.7,52.7,28.9,77
		c9.3,24.8,18.2,48.8,26.8,71.8s16.8,45.2,24.8,66.8s16,42.8,24,63.8c3.7,10.3,7.1,18.9,10.2,25.8c3.2,6.8,6.8,14.6,10.8,23.2
		c0.7,1.3,2.2,3.7,4.5,7c2.3,3.3,5.4,6.8,9.2,10.2c3.8,3.5,8.6,6.6,14.2,9.2c5.1,2.4,10.9,3.8,17.6,4.4c1.4,0.1,2.4,1.2,2.4,2.6v0.9
		c0,1.4-1.2,2.6-2.6,2.6h-140.8C1236.4,611,1235.2,609.8,1235.2,608.4z M1172,313.7c-0.9-2.2-3.9-2.2-4.8-0.1
		c-1.7,3.9-3.8,8.9-6.2,14.9c-3.8,9.3-8.6,20.7-14.2,34c-5.7,13.3-11.9,28.4-18.8,45.2c-6.4,15.8-13.3,32.8-20.8,51.1
		c-0.7,1.7,0.6,3.6,2.4,3.6h116.8c1.8,0,3.1-1.8,2.5-3.5c-5.2-13.8-10.5-27.6-15.9-41.5c-5.8-15-11.5-29.4-17-43.2
		c-5.5-13.8-10.5-26.5-15-38C1177.6,327.5,1174.6,320,1172,313.7z"/>
</g>
<g>
	<path d="M1439.9,618.1c-6.5,4-10.2,6.7-11.2,8c-1,1-2.4,2.6-4.2,4.8c-1.8,2.2-3.9,5.3-6.2,9.5c-2.3,4.2-5.1,9.4-8.2,15.7
		c-3.2,6.3-6.8,14.3-10.8,24c-6.7,16-14,33.9-22,53.8c-8,19.8-16.2,40.2-24.5,61.2c-8.3,21-16.6,42.1-24.8,63.2
		c-8.2,21.1-15.9,41.2-23.2,60.1c0,0.1-0.1,0.1-0.1,0.2l-23.7,48.4c-0.4,0.9-1.4,1.5-2.4,1.5h-2.6c-1.1,0-2-0.6-2.4-1.6
		c-10.7-26.4-20.8-51.6-30.1-75.6c-9.5-24.5-18.8-48.1-27.8-70.8c-9-22.7-17.7-44.6-26-65.8c-8.3-21.2-16.7-42.4-25-63.8
		c-2.3-6.3-4.5-11.8-6.5-16.5c-2-4.7-3.9-9-5.8-13c-1.8-4-3.7-7.8-5.5-11.5c-1.8-3.7-3.8-7.5-5.8-11.5c-1-2-2.5-4.5-4.5-7.5
		s-4.8-6-8.2-9s-7.8-5.6-12.8-7.8c-4.5-1.9-10-3.1-16.6-3.6c-1.4-0.1-2.4-1.2-2.4-2.6v-0.4c0-1.4,1.2-2.6,2.6-2.6h144.3
		c1.4,0,2.6,1.2,2.6,2.6v0.2c0,1.3-0.9,2.4-2.2,2.6c-1.7,0.3-4,0.7-6.8,1.1c-4.3,0.7-8.8,1.9-13.2,3.8c-4.5,1.8-8.5,4.4-12,7.8
		c-3.5,3.3-5.2,7.5-5.2,12.5c0,3,1.8,10.1,5.5,21.2c3.7,11.2,8.4,24.7,14.2,40.5c5.8,15.8,12.4,33.2,19.8,52
		c7.3,18.8,14.6,37.3,21.8,55.5c7.2,18.2,13.9,35.1,20.2,50.8c5.1,12.6,9.3,23.4,12.7,32.4c0.8,2.2,4,2.3,4.9,0.1
		c1.7-4.1,3.9-9.8,6.7-16.9c4.5-11.7,10.2-26.2,17-43.5c6.8-17.3,14.4-37,22.8-59c8.3-22,17-45,26-69c6.7-18.3,11-32.2,13-41.8
		c2-9.5,3-16.1,3-19.7c0-5-1.7-9.2-5-12.5c-3.3-3.3-7.5-6.1-12.5-8.2c-5-2.2-10.2-3.8-15.8-5c-4.5-1-8.7-1.6-12.4-2
		c-1.3-0.1-2.3-1.3-2.3-2.6l0,0c0-1.4,1.2-2.6,2.6-2.6H1460c1.4,0,2.6,1.2,2.6,2.6v0.6c0,1.3-0.9,2.4-2.2,2.6
		C1452.7,612.1,1445.8,614.5,1439.9,618.1z"/>
</g>
</svg>
