<?xml version="1.0" encoding="utf-8"?>
<!-- Generator: Adobe Illustrator 28.3.0, SVG Export Plug-In . SVG Version: 6.00 Build 0)  -->
<svg version="1.1" id="Layer_1" xmlns="http://www.w3.org/2000/svg" xmlns:xlink="http://www.w3.org/1999/xlink" x="0px" y="0px"
	 viewBox="0 0 717.7 596.3" style="enable-background:new 0 0 717.7 596.3;" xml:space="preserve">
<style type="text/css">
	.st0{fill:#3F3D56;}
	.st1{fill:#FFFFFF;}
	.st2{fill:#F2F2F2;}
	.st3{fill:#E6E6E6;}
	.st4{fill:#BC8F8F;}
	.st5{fill:#FFB6B6;}
	.st6{fill:#2F2E41;}
	.st7{fill:#CCCCCC;}
</style>
<path class="st0" d="M263.6,0h208.5c32.4,0,58.7,26.3,58.7,58.7v476.5c0,32.4-26.3,58.7-58.7,58.7H263.6
	c-32.4,0-58.7-26.3-58.7-58.7V58.7C204.9,26.3,231.1,0,263.6,0z"/>
<path class="st1" d="M525.4,58.7v476.5c0,29.4-23.8,53.2-53.2,53.2H263.6c-29.4,0-53.2-23.8-53.2-53.2V58.7
	c0-29.4,23.8-53.2,53.2-53.2h27.3v9.4c0,8.9,7.2,16.1,16.1,16.1h121.8c8.9,0,16.1-7.2,16.1-16.1V5.5h27.3
	C501.5,5.5,525.3,29.3,525.4,58.7z"/>
<path class="st0" d="M203.4,120.5c-2.2,0-4-1.8-4-4v-8c0-2.2,1.8-4,4-4s4,1.8,4,4v8C207.4,118.7,205.6,120.5,203.4,120.5z"/>
<path class="st0" d="M203.4,161.5c-2.2,0-4-1.8-4-4v-22c0-2.2,1.8-4,4-4s4,1.8,4,4v22C207.4,159.7,205.6,161.5,203.4,161.5z"/>
<path class="st0" d="M203.4,194.5c-2.2,0-4-1.8-4-4v-22c0-2.2,1.8-4,4-4s4,1.8,4,4v22C207.4,192.7,205.6,194.5,203.4,194.5z"/>
<path class="st0" d="M531.4,176.5c-2.2,0-4-1.8-4-4v-53.7c0-2.2,1.8-4,4-4s4,1.8,4,4v53.7C535.4,174.7,533.6,176.5,531.4,176.5z"/>
<path class="st1" d="M376.4,18.3h-31c-1.4,0-2.5-1.1-2.5-2.5s1.1-2.5,2.5-2.5h31c1.4,0,2.5,1.1,2.5,2.5S377.8,18.3,376.4,18.3z"/>
<circle class="st1" cx="392.4" cy="15.8" r="2"/>
<path class="st2" d="M632.8,569c2,0.1,3.6-1.5,3.7-3.4c0-1.1-0.4-2.1-1.2-2.8c-0.1-0.4-0.2-0.6-0.3-1c1.9-4.9,7.4-7.4,12.4-5.5
	c2.4,0.9,4.4,2.8,5.4,5.2c4.3,9.8,9.9,20,7.3,30.9c17.6-38.2,11-85.5-15.8-117.8c-7.4-4-13.4-11.1-15-19.4c3.6,1.2,8.1-1.8,5.4-5.6
	c-1.2-1.5-2.4-2.9-3.6-4.3c13.7-14.8,30.3,8.1,15.3,28.1c5,6.2,9.4,12.9,13,20c-0.9-7.6,0-15.2,2.7-22.3c2.7-6.6,7.8-12.3,12.3-18
	c5.4-7,16.8-3.9,17.6,4.9c-5.1,1.7-5.7,9.1,0.2,10c-1.4,16.5-12,31.7-26.7,39.1c5.6,15.3,7.9,31.6,6.7,47.9
	c2.4-19,22.8-23.8,36.9-31.5c2.6-1.7,6-1,7.7,1.6c0.8,1.2,1.1,2.6,0.8,3.9c-2,0.8-3.8,1.8-5.6,3c-2.2,1.5-2.8,4.5-1.3,6.7
	c0.8,1.2,2.1,2,3.6,2.1c-7,17.8-25.5,29.9-44.5,30.1c-1.8,8-4.3,15.8-7.7,23.2l-28.3,0.3c-0.1-0.3-0.2-0.6-0.3-1
	c2.6,0.1,5.2,0,7.8-0.5C634.2,584.6,628.8,580.5,632.8,569L632.8,569z"/>
<path class="st2" d="M85,569c-2,0.1-3.6-1.5-3.7-3.4c0-1.1,0.4-2.1,1.2-2.8c0.1-0.4,0.2-0.6,0.3-1c-1.9-4.9-7.4-7.4-12.4-5.5
	c-2.4,0.9-4.4,2.8-5.4,5.2c-4.3,9.8-9.9,20-7.3,30.9c-17.6-38.2-11-85.5,15.8-117.8c7.4-4,13.4-11.1,15-19.4
	c-3.6,1.2-8.1-1.8-5.4-5.6c1.2-1.5,2.4-2.9,3.6-4.3c-13.7-14.8-30.3,8.1-15.3,28.1c-5,6.2-9.4,12.9-13,20c0.9-7.6,0-15.2-2.7-22.3
	c-2.7-6.6-7.8-12.3-12.3-18c-5.4-7-16.8-3.9-17.6,4.9c5.1,1.7,5.7,9.1-0.2,10c1.4,16.5,12,31.7,26.7,39.1
	c-5.6,15.3-7.9,31.6-6.7,47.9c-2.4-19-22.8-23.8-36.9-31.5c-2.6-1.7-6-1-7.7,1.6c-0.8,1.2-1.1,2.6-0.8,3.9c2,0.8,3.8,1.8,5.6,3
	c2.2,1.5,2.8,4.5,1.3,6.7c-0.8,1.2-2.1,2-3.6,2.1c7,17.8,25.5,29.9,44.5,30.1c1.8,8,4.3,15.8,7.7,23.2l28.3,0.3
	c0.1-0.3,0.2-0.6,0.3-1c-2.6,0.1-5.2,0-7.8-0.5C83.5,584.6,88.9,580.5,85,569L85,569z"/>
<path class="st3" d="M278.9,29.1h-27c-2.8,0-5-2.2-5-5s2.2-5,5-5h27c2.8,0,5,2.2,5,5S281.7,29.1,278.9,29.1z"/>
<circle class="st3" cx="455.9" cy="24.1" r="4.5"/>
<circle class="st3" cx="469.9" cy="24.1" r="4.5"/>
<circle class="st3" cx="483.9" cy="24.1" r="4.5"/>
<path class="st2" d="M452.8,99H283.1c-6.8,0-12.4,5.6-12.4,12.4v110.3c0,6.8,5.6,12.4,12.4,12.4h169.7c6.8,0,12.4-5.6,12.4-12.4
	V111.4C465.2,104.5,459.6,99,452.8,99z"/>
<path class="st0" d="M399.7,146c-15.3,27.1-32.3,53.3-50.7,78.4h-26.6c17.4-21.2,34.9-42.5,52.3-63.7c5-6.1,10.4-12.5,18-15
	L399.7,146z"/>
<path class="st4" d="M364.3,141.7c-2.8,2.9-5.4,5.9-7.9,9c-5.5,6.6-10.9,13.3-16.4,20c-3.4,4.2-6.8,8.3-10.2,12.5
	c-1.1-0.7-2.1-1.5-3-2.3c-11.3-9.8-12.5-27-2.7-38.3c9.5-11,26-12.5,37.4-3.5C362.5,139.9,363.4,140.8,364.3,141.7z"/>
<path class="st0" d="M465.2,138.5v4l-1.8-0.7l-25.3-9.3c-8.2-3-16.5-6.5-25-8.6c-7.4-2.1-15.3-2-22.6,0.3c-6.6,2.4-12.6,6.2-17.6,11
	c-2.2,2.1-4.4,4.2-6.5,6.4c-0.7,0.7-1.4,1.5-2.1,2.2c-2,2.2-4,4.5-5.9,6.8c-5.5,6.6-11,13.3-16.4,20c-3.4,4.2-6.8,8.3-10.2,12.5
	c-11.2,13.7-22.4,27.5-33.5,41.3c-1.5,0-3-0.2-4.4-0.6c11.3-14.1,22.7-28.1,34.1-42c0.3-0.3,0.5-0.6,0.8-1c1.3-1.7,2.7-3.4,4.1-5
	c5.7-7,11.4-13.9,17.1-20.9c4.1-5.1,8.2-10.1,12.7-14.9c0.3-0.3,0.5-0.6,0.8-0.9c0.4-0.5,0.9-0.9,1.3-1.4
	c9.7-10,21.8-18.9,36.3-19.1c8.5-0.1,16.8,2.6,24.7,5.4c8.5,3.1,17,6.2,25.5,9.4L465.2,138.5z"/>
<path class="st2" d="M469.2,477.6H266.5c-6.8,0-12.4-5.6-12.4-12.4v-27.3c0-6.8,5.6-12.4,12.4-12.4h202.7c6.8,0,12.4,5.6,12.4,12.4
	v27.3C481.6,472.1,476,477.6,469.2,477.6z"/>
<path class="st2" d="M469.2,337.6H266.5c-6.8,0-12.4-5.6-12.4-12.4v-27.3c0-6.8,5.6-12.4,12.4-12.4h202.7c6.8,0,12.4,5.6,12.4,12.4
	v27.3C481.6,332.1,476,337.6,469.2,337.6z"/>
<path class="st2" d="M469.2,407.6H266.5c-6.8,0-12.4-5.6-12.4-12.4v-27.3c0-6.8,5.6-12.4,12.4-12.4h202.7c6.8,0,12.4,5.6,12.4,12.4
	v27.3C481.6,402.1,476,407.6,469.2,407.6z"/>
<path class="st1" d="M392.5,446.9h-59.7c-1.5,0-2.7-1.2-2.7-2.7c0-1.5,1.2-2.7,2.7-2.7h59.7c1.5,0,2.7,1.2,2.7,2.7
	C395.1,445.7,394,446.9,392.5,446.9z"/>
<path class="st1" d="M449.9,461.6H332.1c-1.5,0-2.7-1.2-2.7-2.7c0-1.5,1.2-2.7,2.7-2.7h117.8c1.5,0,2.7,1.2,2.7,2.7
	C452.6,460.4,451.4,461.6,449.9,461.6L449.9,461.6z"/>
<circle class="st1" cx="301" cy="451.6" r="17.9"/>
<path class="st5" d="M297.1,475.8c-3.8-1.8-8.3-0.2-10.2,3.5c-0.2,0.4-0.3,0.8-0.4,1.1l-27,1.6l-4,14l36.7-6.2
	c3.4,0.7,6.9-1,8.5-4.1c1.8-3.7,0.3-8.1-3.4-9.9C297.2,475.8,297.1,475.8,297.1,475.8z"/>
<path class="st4" d="M237.5,406.8L237.5,406.8c-6.8-2.8-14.6,0.5-17.4,7.3c-0.2,0.6-0.4,1.2-0.6,1.9l-7.4,29.9l1.4,52.4
	c0,0,38.7,7.4,45.2,2.7s5.9-8.3,6.5-4.8s3.4,5,3.4,3.6s0.4-1.2,2-1.6c1.6-0.4,8.8-3.1,8.8-3.1l0.3-14.9c0,0-11.8-4.5-14.7-3.1
	s0.6,3.6-2.9,1.3s-3.9-9.2-4.5-2.9s-2.3,7.5-4.9,4.7s-14.7-1-14.7-1l7.7-58.2C246.5,414.9,243.1,409.1,237.5,406.8z"/>
<polygon class="st5" points="498.2,562.2 498.6,551.1 456.2,544.3 455.6,560.6 "/>
<path class="st6" d="M490.5,565.5l-0.4-17.7l7.5,0.3l12.2-16.3c1.6-2.1,4.5-2.5,6.6-1c1.2,0.9,2,2.4,1.9,4l-0.8,21l-7.6,3.3l7.4,1.7
	l-0.3,7.9L490.5,565.5z"/>
<path class="st6" d="M259.8,587.5l134.1-15.6c0,0,57.9,3.3,71.5-5.5l14.3-1.8l0.8-21.1c0,0-8.8,0.1-13.8-2.3s-1.5-5.2-6.3-2.4
	s-4.3,3.2-8,1.9s-174-8.3-174-8.3L259.8,587.5z"/>
<polygon class="st5" points="436.6,578.3 444.4,570.5 418,536.7 406.4,548.2 "/>
<path class="st6" d="M428.7,575.5l11.7-13.2l5.3,5.3l20-3.7c2.6-0.5,5,1.2,5.5,3.8c0.3,1.5-0.2,3.1-1.3,4.2l-14.8,14.9l-7.8-2.7
	l4.3,6.3L446,596L428.7,575.5z"/>
<path class="st6" d="M206.9,514l1.3,31c1.6,36.5,41.8,58.6,72.9,39.5c0.6-0.4,1.2-0.7,1.7-1.1c0.9-0.6,11.8-3.2,11.5-8.2
	s2.5-7.5,5.1-6.1s36-46.1,36-46.1s69.5,34.7,84.8,42.8l16.2-4.4c0,0,6.1,2.9,3.9-1.3s-2.6-2.2-3.3-6.7s-2.4-10.1-3.4-9.9
	s-86-59.2-86-59.2s-13.8-14-31-4.8c-0.4,1.4-0.1,1.4-0.1,1.4l-56.7,46.2l-8-15.2L206.9,514z"/>
<path class="st4" d="M245,400.1l-24.3-11.4l-7.3,12.7c0,0-19.5,27.9-19.8,48s3.2,26.1,3.2,26.1s-8.4,6.3-4.2,10.1s13.5,5.5,6.4,7.2
	s-5.3,18.6,2.7,21.6s51,3,51,3c-0.8-2.7-0.1-5.6,1.9-7.5c3.3-3.3,6.3-0.9,3.3-6.1s-8-2.2-4-9.2s4-9.1,4-9.1s8.2-15.5-4.1-32.4
	c-0.7-1-0.1-1.1-0.1-1.1l-9.9-33.2L245,400.1z"/>
<path class="st6" d="M205.8,352.2c0.2,5.1-3,12.4-4.6,16.8c-1.7,4.7,5.7,10.9,10.4,12.3c0.2-1.6,1.1-3.1,2.3-4.2
	c-0.3,1.5-0.4,3.1-0.1,4.7l39.9,9.1c7.2-8.3,14.4-20.3,12.8-34.7c0.8-5.6-1.9-11.1-6.8-14l-20.2-11.9c-8.6-2-19.4-3.1-25.6,2.2
	C208.4,337.4,205.4,344.7,205.8,352.2z"/>
<circle class="st5" cx="241.5" cy="363.5" r="23"/>
<path class="st6" d="M214.6,351.2l-1.1,4.9l19.4,4.4c0-2,0.9-3.9,2.4-5.2c-0.4,1.9-0.4,3.9,0.1,5.8c10.5,5.9,19.9,8,28.4,6.5
	c2.4,0.5,4.8-1,5.3-3.3l0,0c3.4-14.9-5.5-30.2-20.4-33.9c-15-3.8-30.2,5.4-34,20.4C214.7,350.8,214.6,351,214.6,351.2L214.6,351.2z"
	/>
<path class="st6" d="M225.9,319c2.6-0.6,5.3-0.4,7.6-2.2l-1.5,3.5c4.2-1.2,8.7-0.7,12.6,1.3c1.2,0.5,2.1,1.4,2.8,2.4
	c0.8,1.3,0.9,2.9,0.4,4.3c-0.5,1.2-1.5,2.1-2.7,2.6c-1.1,0.3-2.2,0.4-3.3,0.3c-4.7-0.1-9.4-0.2-14.2-0.3c-1.8,0.1-3.6-0.2-5.2-1
	c-1.8-1.1-2.7-3.1-2.4-5.2C220.4,321.5,223.4,319.6,225.9,319z"/>
<path class="st7" d="M350.7,499.3c-0.1-0.1-0.1-0.1-0.2-0.2c-0.2-0.2-0.4-0.4-0.6-0.5l-1.7-0.9L337,485.3c-0.6-0.3-1.4-0.4-2.1-0.2
	l0,0l-4.8,1.5l-4.1,1.3l-5.8,1.8l-39.2,12.1l-25.7,8c-1.4,0.5-2.3,2-1.8,3.4c0.1,0.4,0.3,0.7,0.6,1l0.8,0.9l1.7,1.9l4,8.3l1.1,1.2
	c0.7,0.8,1.8,1.1,2.9,0.8l84.8-23.6c1.5-0.5,2.3-2.1,1.8-3.6C351.1,499.9,350.9,499.6,350.7,499.3L350.7,499.3z"/>
<path class="st7" d="M345.6,376.6l-1.6,0.3c-0.5,0.1-0.9,0.3-1.1,0.7l-0.7,1l-6.5,16.3c-0.3,0.4-0.4,0.8-0.3,1.3l0.8,4.7l-2.9,83
	c0.1,0.4,0.3,0.8,0.6,1.1l12.7,17l0.3,0.2l0.6,0.5c0.3,0.3,0.7,0.4,1.1,0.4l1.1-0.1c0.5,0,1-0.3,1.3-0.6c0.3-0.4,0.4-0.9,0.4-1.4
	L347.6,378C347.5,377.1,346.6,376.4,345.6,376.6L345.6,376.6z"/>
<polygon class="st4" points="342.9,383 337.1,400.7 334.9,471 343.9,479 "/>
<path class="st5" d="M298.2,490.4c-3.8-1.8-8.3-0.2-10.2,3.5c-0.2,0.4-0.3,0.8-0.4,1.1l-27,1.6l-4,14l36.7-6.2
	c3.4,0.7,6.9-1,8.5-4.1c1.8-3.7,0.3-8.1-3.4-9.9l0,0C298.3,490.4,298.2,490.4,298.2,490.4z"/>
<path class="st4" d="M238.7,421.4L238.7,421.4c-6.8-2.8-14.6,0.5-17.4,7.3c-0.2,0.6-0.4,1.2-0.6,1.9l-7.4,29.9l1.4,52.4
	c0,0,38.7,7.4,45.2,2.7s5.9-8.3,6.5-4.8s3.4,5,3.4,3.6s0.4-1.2,2-1.6c1.6-0.4,8.8-3.1,8.8-3.1l0.3-14.9c0,0-11.8-4.5-14.7-3.1
	s0.6,3.6-2.9,1.3s-3.9-9.2-4.5-2.9s-2.3,7.5-4.9,4.7s-14.7-1-14.7-1l7.7-58.2C247.6,429.5,244.3,423.7,238.7,421.4z"/>
<path class="st7" d="M0,595.1c0,0.7,0.5,1.2,1.2,1.2c0,0,0,0,0,0h715.3c0.7,0,1.2-0.5,1.2-1.2s-0.5-1.2-1.2-1.2H1.2
	C0.5,593.9,0,594.5,0,595.1C0,595.1,0,595.1,0,595.1z"/>
<path class="st3" d="M631.2,337.6H428.5c-6.8,0-12.4-5.6-12.4-12.4v-27.3c0-6.8,5.6-12.4,12.4-12.4h202.7c6.8,0,12.4,5.6,12.4,12.4
	v27.3C643.6,332.1,638,337.6,631.2,337.6z"/>
<path class="st1" d="M554.5,306.9h-59.7c-1.5,0-2.7-1.2-2.7-2.7c0-1.5,1.2-2.7,2.7-2.7h59.7c1.5,0,2.7,1.2,2.7,2.7
	C557.1,305.7,556,306.9,554.5,306.9z"/>
<path class="st1" d="M611.9,321.6H494.1c-1.5,0-2.7-1.2-2.7-2.7c0-1.5,1.2-2.7,2.7-2.7h117.8c1.5,0,2.7,1.2,2.7,2.7
	C614.6,320.4,613.4,321.6,611.9,321.6L611.9,321.6z"/>
<circle class="st1" cx="463" cy="311.6" r="17.9"/>
<path class="st3" d="M566.2,407.6H363.5c-6.8,0-12.4-5.6-12.4-12.4v-27.3c0-6.8,5.6-12.4,12.4-12.4h202.7c6.8,0,12.4,5.6,12.4,12.4
	v27.3C578.6,402.1,573,407.6,566.2,407.6z"/>
<path class="st1" d="M489.5,376.9h-59.7c-1.5,0-2.7-1.2-2.7-2.7c0-1.5,1.2-2.7,2.7-2.7l0,0h59.7c1.5,0,2.7,1.2,2.7,2.7
	C492.1,375.7,491,376.9,489.5,376.9L489.5,376.9z"/>
<path class="st1" d="M546.9,391.6H429.1c-1.5,0-2.7-1.2-2.7-2.7c0-1.5,1.2-2.7,2.7-2.7l0,0h117.8c1.5,0,2.7,1.2,2.7,2.7
	C549.6,390.4,548.4,391.6,546.9,391.6L546.9,391.6z"/>
<circle class="st1" cx="398" cy="381.6" r="17.9"/>
</svg>
